<?xml version="1.0" encoding="UTF-8" standalone="no"?>
<svg
   xmlns:dc="http://purl.org/dc/elements/1.1/"
   xmlns:cc="http://creativecommons.org/ns#"
   xmlns:rdf="http://www.w3.org/1999/02/22-rdf-syntax-ns#"
   xmlns:svg="http://www.w3.org/2000/svg"
   xmlns="http://www.w3.org/2000/svg"
   xmlns:xlink="http://www.w3.org/1999/xlink"
   xmlns:sodipodi="http://sodipodi.sourceforge.net/DTD/sodipodi-0.dtd"
   xmlns:inkscape="http://www.inkscape.org/namespaces/inkscape"
   fill="#000000"
   height="24"
   viewBox="0 0 24 24"
   width="24"
   version="1.1"
   id="svg3745"
   sodipodi:docname="ic_scrum_black_24px.svg"
   inkscape:version="0.92.2 (5c3e80d, 2017-08-06)">
  <metadata
     id="metadata3749">
    <rdf:RDF>
      <cc:Work
         rdf:about="">
        <dc:format>image/svg+xml</dc:format>
        <dc:type
           rdf:resource="http://purl.org/dc/dcmitype/StillImage" />
        <dc:title></dc:title>
      </cc:Work>
    </rdf:RDF>
  </metadata>
  <sodipodi:namedview
     pagecolor="#ffffff"
     bordercolor="#666666"
     borderopacity="1"
     objecttolerance="10"
     gridtolerance="10"
     guidetolerance="10"
     inkscape:pageopacity="0"
     inkscape:pageshadow="2"
     inkscape:window-width="1920"
     inkscape:window-height="1005"
     id="namedview3747"
     showgrid="false"
     inkscape:zoom="16.916667"
     inkscape:cx="24.346278"
     inkscape:cy="5.958932"
     inkscape:window-x="-9"
     inkscape:window-y="-9"
     inkscape:window-maximized="1"
     inkscape:current-layer="svg3745" />
  <defs
     id="defs3732">
    <path
       d="M0 0h24v24H0V0z"
       id="a" />
  </defs>
  <defs
     id="defs3735">
    <path
       d="M0 0h24v24H0V0z"
       id="c" />
  </defs>
  <clipPath
     id="b">
    <use
       overflow="visible"
       xlink:href="#a"
       id="use3737" />
  </clipPath>
  <clipPath
     clip-path="url(#b)"
     id="d">
    <use
       overflow="visible"
       xlink:href="#c"
       id="use3740" />
  </clipPath>
  <rect
     id="rect3751"
     width="19"
     height="2"
     x="2.5"
     y="19" />
  <path
     inkscape:connector-curvature="0"
     d="m 16.386699,19.743842 c 0,-1.1 -0.249753,0.06897 -1.349753,0.06897 -1.1,0 -0.522168,-0.932513 -0.522168,0.167487 0,1.1 -1.050739,0.108375 0.04926,0.108375 1.1,0 1.82266,0.755172 1.82266,-0.344828 z M 12.554187,2.8817734 c -4.9699998,0 -8.9999998,4.03 -8.9999998,8.9999996 H 0.55418719 l 4.00000001,4 4,-4 h -3 c 0,-3.8699996 3.13,-6.9999996 6.9999998,-6.9999996 3.87,0 7,3.13 7,6.9999996 0,3.87 -3.780246,7.236453 -7.650246,7.236453 -1.51,0 1.425772,3.559839 -3.8235469,0.177833 L 7.0741872,19.021773 c 1.52,1.16 3.4199998,1.86 5.4799998,1.86 4.97,0 9,-4.03 9,-9 0,-4.9699996 -4.03,-8.9999996 -9,-8.9999996 z"
     id="path4"
     sodipodi:nodetypes="sssssscccccsssccsss" />
  <path
     inkscape:connector-curvature="0"
     d="M 5.0118769,7.6498961 C 4.6884897,7.3425471 5.1037096,7.5938722 5.4188796,7.2622556 5.734049,6.9306398 5.2943422,6.8442862 5.6177293,7.1516347 5.9411164,7.4589829 5.9506488,6.8651539 5.6354781,7.196771 5.3203088,7.5283867 5.335264,7.9572473 5.0118775,7.649899 Z M 1.152716,1.7831205 C 2.5767104,0.28481788 4.916149,0.19590953 6.377269,1.5845655 L 7.2368225,0.68015741 7.2667023,3.0036644 4.9446795,3.0919117 5.8042337,2.1875035 C 4.6665002,1.1061959 2.8495162,1.1752497 1.7406917,2.3419358 0.63186662,3.5086225 0.65524773,5.3267673 1.7929811,6.4080749 2.9307144,7.4893824 5.0035185,7.2903663 6.1123434,6.1236796 6.5449855,5.6684612 6.7503839,7.5481525 7.2601419,5.0206883 L 7.4678022,4.6407104 C 7.3733213,5.4230562 7.0347282,6.1914332 6.4445007,6.8124603 5.0205061,8.3107636 2.6810675,8.3996725 1.2199476,7.0110168 -0.24117253,5.6223607 -0.27127631,3.2814265 1.1527188,1.7831232 Z"
     id="path4-4"
     sodipodi:nodetypes="sssssscccccsssccsss"
     style="stroke-width:0.41071123" />
</svg>
